<svg xmlns="http://www.w3.org/2000/svg" viewBox="0 0 64 64"><style/><g id="Layer_1"><circle class="st0" cx="32" cy="32" r="32"/><g class="st1"><path class="st2" d="M29 25.3c-.4-4.8-5.4-7.1-5.6-7.2-.3-.1-.5-.1-.7-.1-5.8 1-6.6 4.3-6.7 4.5v.6c6.9 21.4 21.2 25.3 25.9 26.6.4.1.7.2.9.3.1 0 .2.1.3.1.2 0 .3 0 .5-.1.1-.1 3.5-1.7 4.4-6.9 0-.2 0-.5-.1-.7-.1-.1-1.9-3.5-6.8-4.7-.3-.1-.7 0-1 .2-1.6 1.3-3.7 2.7-4.6 2.9-6.2-3-9.7-8.9-9.8-10-.1-.6 1.3-2.8 3-4.6.2-.2.3-.6.3-.9z"/></g><path class="st3" d="M29 23.3c-.4-4.8-5.4-7.1-5.6-7.2-.3-.1-.5-.1-.7-.1-5.8 1-6.6 4.3-6.7 4.5v.6c6.9 21.4 21.2 25.3 25.9 26.6.4.1.7.2.9.3.1 0 .2.1.3.1.2 0 .3 0 .5-.1.1-.1 3.5-1.7 4.4-6.9 0-.2 0-.5-.1-.7-.1-.1-1.9-3.5-6.8-4.7-.3-.1-.7 0-1 .2-1.6 1.3-3.7 2.7-4.6 2.9-6.2-3-9.7-8.9-9.8-10-.1-.6 1.3-2.8 3-4.6.2-.2.3-.6.3-.9z"/></g></svg>